# xmcd CD database file
# Copyright (C) 1993-1996 Ti Kan
#
# Track frame offsets:
#  150
#  14778
#  29043
#  41857
#  55243
#  69908
#  85790
#  101360
#  116693
#  132998
#  147269
#  163447
#  177609
#  191022
#  208234
#  222889
#  241041
#  257781
#
# Disc length: 3647 seconds
#
# Revision: 1
# Processed by: cddbd v1.5.1PL0 Copyright (c) Steve Scherf et al.
# Submitted via: Advanced CD Ripper Pro 2.0
#
DISCID=180e3d12
DTITLE=Truck Stop - 30 Jahre Truck Stop
DYEAR=2003
DGENRE=Country
TTITLE0=Von Arizona bis Old Texas Town
TTITLE1=Truck Stop - Die Frau mit dem Gurt (mit Gun
TTITLE2=Truck Stop - 300 Jahre (wenn man uns addier
TTITLE3=Truck Stop - Der Wilde, wilde Westen ( mit
TTITLE4=Truck Stop - Mississippi Lady
TTITLE5=Truck Stop - Wir sind die Counrty-Superstar
TTITLE6=Truck Stop - Hello, Lady Harley ( with Ten
TTITLE7=Truck Stop - Das Leben ist viel zu kurz (Eg
TTITLE8=Truck Stop - Ich möcht so gern Dave Dudley
TTITLE9=Truck Stop - Das gibt es nur in Mashville
TTITLE10=Truck Stop - Hey, kleiner Cowboy ( mit Lind
TTITLE11=Truck Stop - Keep on Truckin'
TTITLE12=Truck Stop - Take it easy, altes Haus (mit
TTITLE13=Truck Stop - Wie Schön, das du das bist
TTITLE14=Truck Stop - Angeln entspannt (mit Höhner)
TTITLE15=Truck Stop - Ein Herz und eine Seele
TTITLE16=Truck Stop - Jenny
TTITLE17=Truck Stop - Freunde bleiben (mit Peter  (S
EXTD=
EXTT0=
EXTT1=
EXTT2=
EXTT3=
EXTT4=
EXTT5=
EXTT6=
EXTT7=
EXTT8=
EXTT9=
EXTT10=
EXTT11=
EXTT12=
EXTT13=
EXTT14=
EXTT15=
EXTT16=
EXTT17=
PLAYORDER=
